<svg width="390" height="844" viewBox="0 0 390 844" fill="none" xmlns="http://www.w3.org/2000/svg">
<g clip-path="url(#clip0_2_2)">
<rect width="390" height="844" fill="white"/>
<circle cx="69" cy="44" r="126" fill="#FB923C"/>
<ellipse opacity="0.25" cx="144.5" cy="198.5" rx="90.5" ry="92.5" fill="#FB923C"/>
<circle opacity="0.5" cx="313" cy="96" r="164" fill="#FB923C"/>
<path d="M76.2515 406.2V422.232H95.0995V427.288H76.2515V447H70.0435V401.144H98.2995V406.2H76.2515ZM115.739 414.072C118.107 414.072 120.24 414.467 122.139 415.256C124.037 416.045 125.659 417.165 127.003 418.616C128.347 420.067 129.371 421.827 130.075 423.896C130.8 425.944 131.163 428.237 131.163 430.776C131.163 433.336 130.8 435.64 130.075 437.688C129.371 439.736 128.347 441.485 127.003 442.936C125.659 444.387 124.037 445.507 122.139 446.296C120.24 447.064 118.107 447.448 115.739 447.448C113.349 447.448 111.195 447.064 109.275 446.296C107.376 445.507 105.755 444.387 104.411 442.936C103.067 441.485 102.032 439.736 101.307 437.688C100.603 435.64 100.251 433.336 100.251 430.776C100.251 428.237 100.603 425.944 101.307 423.896C102.032 421.827 103.067 420.067 104.411 418.616C105.755 417.165 107.376 416.045 109.275 415.256C111.195 414.467 113.349 414.072 115.739 414.072ZM115.739 443C118.939 443 121.328 441.933 122.907 439.8C124.485 437.645 125.275 434.648 125.275 430.808C125.275 426.947 124.485 423.939 122.907 421.784C121.328 419.629 118.939 418.552 115.739 418.552C114.117 418.552 112.699 418.829 111.483 419.384C110.288 419.939 109.285 420.739 108.475 421.784C107.685 422.829 107.088 424.12 106.683 425.656C106.299 427.171 106.107 428.888 106.107 430.808C106.107 434.648 106.896 437.645 108.475 439.8C110.075 441.933 112.496 443 115.739 443ZM152.051 414.072C154.419 414.072 156.552 414.467 158.451 415.256C160.35 416.045 161.971 417.165 163.315 418.616C164.659 420.067 165.683 421.827 166.387 423.896C167.112 425.944 167.475 428.237 167.475 430.776C167.475 433.336 167.112 435.64 166.387 437.688C165.683 439.736 164.659 441.485 163.315 442.936C161.971 444.387 160.35 445.507 158.451 446.296C156.552 447.064 154.419 447.448 152.051 447.448C149.662 447.448 147.507 447.064 145.587 446.296C143.688 445.507 142.067 444.387 140.723 442.936C139.379 441.485 138.344 439.736 137.619 437.688C136.915 435.64 136.563 433.336 136.563 430.776C136.563 428.237 136.915 425.944 137.619 423.896C138.344 421.827 139.379 420.067 140.723 418.616C142.067 417.165 143.688 416.045 145.587 415.256C147.507 414.467 149.662 414.072 152.051 414.072ZM152.051 443C155.251 443 157.64 441.933 159.219 439.8C160.798 437.645 161.587 434.648 161.587 430.808C161.587 426.947 160.798 423.939 159.219 421.784C157.64 419.629 155.251 418.552 152.051 418.552C150.43 418.552 149.011 418.829 147.795 419.384C146.6 419.939 145.598 420.739 144.787 421.784C143.998 422.829 143.4 424.12 142.995 425.656C142.611 427.171 142.419 428.888 142.419 430.808C142.419 434.648 143.208 437.645 144.787 439.8C146.387 441.933 148.808 443 152.051 443ZM195.82 422.296C194.753 420.867 193.601 419.875 192.364 419.32C191.126 418.744 189.74 418.456 188.204 418.456C185.196 418.456 182.881 419.533 181.26 421.688C179.638 423.843 178.828 426.915 178.828 430.904C178.828 433.016 179.009 434.829 179.372 436.344C179.734 437.837 180.268 439.075 180.972 440.056C181.676 441.016 182.54 441.72 183.564 442.168C184.588 442.616 185.75 442.84 187.052 442.84C188.929 442.84 190.561 442.413 191.948 441.56C193.356 440.707 194.646 439.501 195.82 437.944V422.296ZM201.516 399.864V447H198.124C197.313 447 196.801 446.605 196.588 445.816L196.076 441.88C194.689 443.544 193.11 444.888 191.34 445.912C189.569 446.936 187.521 447.448 185.196 447.448C183.34 447.448 181.654 447.096 180.14 446.392C178.625 445.667 177.334 444.611 176.268 443.224C175.201 441.837 174.38 440.109 173.804 438.04C173.228 435.971 172.94 433.592 172.94 430.904C172.94 428.515 173.26 426.296 173.9 424.248C174.54 422.179 175.457 420.387 176.652 418.872C177.846 417.357 179.308 416.173 181.036 415.32C182.785 414.445 184.748 414.008 186.924 414.008C188.908 414.008 190.604 414.349 192.012 415.032C193.441 415.693 194.71 416.621 195.82 417.816V399.864H201.516Z" fill="black"/>
<path d="M249.008 401.144V447H242.8V426.136H218.064V447H211.856V401.144H218.064V421.592H242.8V401.144H249.008ZM285.481 414.584V447H282.089C281.278 447 280.766 446.605 280.553 445.816L280.105 442.328C278.697 443.885 277.118 445.144 275.369 446.104C273.619 447.043 271.614 447.512 269.353 447.512C267.582 447.512 266.014 447.224 264.649 446.648C263.305 446.051 262.174 445.219 261.257 444.152C260.339 443.085 259.646 441.795 259.177 440.28C258.729 438.765 258.505 437.091 258.505 435.256V414.584H264.201V435.256C264.201 437.709 264.755 439.608 265.865 440.952C266.995 442.296 268.713 442.968 271.017 442.968C272.702 442.968 274.27 442.573 275.721 441.784C277.193 440.973 278.547 439.864 279.785 438.456V414.584H285.481ZM300.24 439.192C301.285 440.6 302.427 441.592 303.664 442.168C304.923 442.744 306.299 443.032 307.792 443.032C310.843 443.032 313.179 441.955 314.8 439.8C316.421 437.645 317.232 434.435 317.232 430.168C317.232 426.2 316.507 423.288 315.056 421.432C313.627 419.555 311.579 418.616 308.912 418.616C307.056 418.616 305.435 419.043 304.048 419.896C302.683 420.749 301.413 421.955 300.24 423.512V439.192ZM300.24 419.256C301.605 417.677 303.141 416.419 304.848 415.48C306.576 414.541 308.56 414.072 310.8 414.072C312.699 414.072 314.405 414.435 315.92 415.16C317.456 415.885 318.757 416.941 319.824 418.328C320.891 419.693 321.701 421.357 322.256 423.32C322.832 425.283 323.12 427.491 323.12 429.944C323.12 432.568 322.8 434.957 322.16 437.112C321.52 439.267 320.592 441.112 319.376 442.648C318.181 444.163 316.72 445.347 314.992 446.2C313.264 447.032 311.323 447.448 309.168 447.448C307.035 447.448 305.232 447.053 303.76 446.264C302.309 445.453 301.04 444.312 299.952 442.84L299.664 445.784C299.493 446.595 299.003 447 298.192 447H294.512V399.864H300.24V419.256Z" fill="#FB923C"/>
<circle cx="314.003" cy="759.466" r="126" transform="rotate(165 314.003 759.466)" fill="#FB923C"/>
<ellipse opacity="0.25" cx="201.088" cy="629.771" rx="90.5" ry="92.5" transform="rotate(165 201.088 629.771)" fill="#FB923C"/>
<circle opacity="0.5" cx="64.8582" cy="772.39" r="164" transform="rotate(165 64.8582 772.39)" fill="#FB923C"/>
</g>
<defs>
<clipPath id="clip0_2_2">
<rect width="390" height="844" fill="white"/>
</clipPath>
</defs>
</svg>
